<?xml version="1.0" encoding="UTF-8"?>
<svg width="40px" height="40px" viewBox="0 0 40 40" version="1.1" xmlns="http://www.w3.org/2000/svg">
    <circle fill="#4F46E5" cx="20" cy="20" r="20"/>
    <path d="M28,15 C28,12.2385763 25.7614237,10 23,10 L17,10 C14.2385763,10 12,12.2385763 12,15 L12,25 C12,27.7614237 14.2385763,30 17,30 L23,30 C25.7614237,30 28,27.7614237 28,25 L28,15 Z M20,28 C16.6862915,28 14,25.3137085 14,22 C14,18.6862915 16.6862915,16 20,16 C23.3137085,16 26,18.6862915 26,22 C26,25.3137085 23.3137085,28 20,28 Z M20,26 C22.209139,26 24,24.209139 24,22 C24,19.790861 22.209139,18 20,18 C17.790861,18 16,19.790861 16,22 C16,24.209139 17.790861,26 20,26 Z" fill="#FFFFFF"/>
</svg>
